# xmcd
#
# Track frame offsets:
#	150
#	12612
#	25537
#	43025
#	61907
#	77375
#	92947
#	111247
#	128975
#	149685
#	163860
#	180697
#
# Disc length: 2694 seconds
#
# Revision: 0
# Processed by: cddbd v1.4PL0 Copyright (c) Steve Scherf et al.
# Submitted via: audiograbber 1.80
#
DISCID=a20a840c
DTITLE=Hell's Kitchen - The Big Meal
DYEAR=1900
DGENRE=
TTITLE0=Nobody
TTITLE1=Gige
TTITLE2=Nutshell
TTITLE3=The Big Meal
TTITLE4=Buried With The King
TTITLE5=Get Me Out
TTITLE6=Kill The Cat
TTITLE7=One Morning
TTITLE8=Louise
TTITLE9=Move Back
TTITLE10=Wha Ha Blues
TTITLE11=Killy Mayo (remix)
EXTD=
EXTT0=
EXTT1=
EXTT2=
EXTT3=
EXTT4=
EXTT5=
EXTT6=
EXTT7=
EXTT8=
EXTT9=
EXTT10=
EXTT11=
PLAYORDER=
